<mxfile host="app.diagrams.net" agent="Mozilla/5.0 (Windows NT 10.0; Win64; x64) AppleWebKit/537.36 (KHTML, like Gecko) Chrome/132.0.0.0 Safari/537.36" version="26.0.14">
  <diagram name="Page-1" id="qxeGlxO1wTCCG55qbI5i">
    <mxGraphModel dx="1050" dy="530" grid="1" gridSize="10" guides="1" tooltips="1" connect="1" arrows="1" fold="1" page="1" pageScale="1" pageWidth="850" pageHeight="1100" math="0" shadow="0">
      <root>
        <mxCell id="0" />
        <mxCell id="1" parent="0" />
        <mxCell id="OGXQOEup_NDldtCrAAuj-1" value="&lt;u&gt;Driver UI&lt;/u&gt;&lt;div&gt;- Accepts Assignment&lt;/div&gt;&lt;div&gt;- Completes Delivery&lt;/div&gt;" style="rounded=0;whiteSpace=wrap;html=1;" vertex="1" parent="1">
          <mxGeometry x="360" y="30" width="130" height="60" as="geometry" />
        </mxCell>
        <mxCell id="OGXQOEup_NDldtCrAAuj-2" value="Temporal Manager" style="rounded=0;whiteSpace=wrap;html=1;fillColor=#fff2cc;strokeColor=#d6b656;" vertex="1" parent="1">
          <mxGeometry x="360" y="160" width="130" height="40" as="geometry" />
        </mxCell>
        <mxCell id="OGXQOEup_NDldtCrAAuj-3" value="1. Driver accepts an assignment&lt;div&gt;5. Driver completes delivery and marks order as completed&lt;/div&gt;" style="text;html=1;align=center;verticalAlign=middle;whiteSpace=wrap;rounded=0;" vertex="1" parent="1">
          <mxGeometry x="230" y="110" width="150" height="30" as="geometry" />
        </mxCell>
        <mxCell id="OGXQOEup_NDldtCrAAuj-6" value="" style="endArrow=classic;html=1;rounded=0;exitX=0.5;exitY=1;exitDx=0;exitDy=0;entryX=0.5;entryY=0;entryDx=0;entryDy=0;" edge="1" parent="1">
          <mxGeometry width="50" height="50" relative="1" as="geometry">
            <mxPoint x="420" y="90" as="sourcePoint" />
            <mxPoint x="420" y="160" as="targetPoint" />
          </mxGeometry>
        </mxCell>
        <mxCell id="OGXQOEup_NDldtCrAAuj-7" value="&lt;b&gt;HTTP POST&lt;/b&gt;" style="text;html=1;align=center;verticalAlign=middle;whiteSpace=wrap;rounded=0;fontColor=#007FFF;" vertex="1" parent="1">
          <mxGeometry x="265" y="60" width="80" height="30" as="geometry" />
        </mxCell>
        <mxCell id="OGXQOEup_NDldtCrAAuj-15" value="Tracking of Delivery" style="rounded=0;whiteSpace=wrap;html=1;fillColor=#fff2cc;strokeColor=#d6b656;" vertex="1" parent="1">
          <mxGeometry x="200" y="270" width="120" height="40" as="geometry" />
        </mxCell>
        <mxCell id="OGXQOEup_NDldtCrAAuj-16" value="Driver" style="rounded=0;whiteSpace=wrap;html=1;fillColor=#fff2cc;strokeColor=#d6b656;" vertex="1" parent="1">
          <mxGeometry x="360" y="270" width="130" height="40" as="geometry" />
        </mxCell>
        <mxCell id="OGXQOEup_NDldtCrAAuj-17" value="Notification" style="rounded=0;whiteSpace=wrap;html=1;fillColor=#fff2cc;strokeColor=#d6b656;" vertex="1" parent="1">
          <mxGeometry x="520" y="270" width="120" height="40" as="geometry" />
        </mxCell>
        <mxCell id="OGXQOEup_NDldtCrAAuj-18" value="" style="endArrow=classic;startArrow=classic;html=1;rounded=0;exitX=0.5;exitY=0;exitDx=0;exitDy=0;entryX=0.5;entryY=0;entryDx=0;entryDy=0;" edge="1" parent="1" source="OGXQOEup_NDldtCrAAuj-15" target="OGXQOEup_NDldtCrAAuj-17">
          <mxGeometry width="50" height="50" relative="1" as="geometry">
            <mxPoint x="400" y="280" as="sourcePoint" />
            <mxPoint x="450" y="230" as="targetPoint" />
            <Array as="points">
              <mxPoint x="260" y="240" />
              <mxPoint x="400" y="240" />
              <mxPoint x="580" y="240" />
            </Array>
          </mxGeometry>
        </mxCell>
        <mxCell id="OGXQOEup_NDldtCrAAuj-19" value="&lt;div&gt;&lt;u&gt;Customer UI&lt;/u&gt;&lt;/div&gt;&lt;div&gt;- Receives Notification&lt;/div&gt;" style="rounded=0;whiteSpace=wrap;html=1;" vertex="1" parent="1">
          <mxGeometry x="610" y="350" width="150" height="60" as="geometry" />
        </mxCell>
        <mxCell id="OGXQOEup_NDldtCrAAuj-20" value="" style="endArrow=classic;startArrow=classic;html=1;rounded=0;entryX=0.5;entryY=1;entryDx=0;entryDy=0;exitX=0.5;exitY=0;exitDx=0;exitDy=0;" edge="1" parent="1" source="OGXQOEup_NDldtCrAAuj-16" target="OGXQOEup_NDldtCrAAuj-2">
          <mxGeometry width="50" height="50" relative="1" as="geometry">
            <mxPoint x="400" y="280" as="sourcePoint" />
            <mxPoint x="450" y="230" as="targetPoint" />
          </mxGeometry>
        </mxCell>
        <mxCell id="OGXQOEup_NDldtCrAAuj-21" value="2. Record order status as Driver assigned" style="text;html=1;align=center;verticalAlign=middle;whiteSpace=wrap;rounded=0;" vertex="1" parent="1">
          <mxGeometry x="205" y="320" width="110" height="30" as="geometry" />
        </mxCell>
        <mxCell id="OGXQOEup_NDldtCrAAuj-22" value="3. Assigns driver to order" style="text;html=1;align=center;verticalAlign=middle;whiteSpace=wrap;rounded=0;" vertex="1" parent="1">
          <mxGeometry x="365" y="320" width="110" height="30" as="geometry" />
        </mxCell>
        <mxCell id="OGXQOEup_NDldtCrAAuj-23" value="&lt;div&gt;&lt;br&gt;&lt;/div&gt;&lt;div&gt;&lt;br&gt;&lt;/div&gt;4. Notifies customer when order has been assigned&lt;div&gt;6. Notifies customer when delivery is completed&lt;/div&gt;" style="text;html=1;align=center;verticalAlign=middle;whiteSpace=wrap;rounded=0;" vertex="1" parent="1">
          <mxGeometry x="420" y="365" width="170" height="30" as="geometry" />
        </mxCell>
        <mxCell id="OGXQOEup_NDldtCrAAuj-24" value="" style="endArrow=classic;html=1;rounded=0;entryX=0;entryY=0.75;entryDx=0;entryDy=0;exitX=0.5;exitY=1;exitDx=0;exitDy=0;" edge="1" parent="1" source="OGXQOEup_NDldtCrAAuj-17" target="OGXQOEup_NDldtCrAAuj-19">
          <mxGeometry width="50" height="50" relative="1" as="geometry">
            <mxPoint x="400" y="280" as="sourcePoint" />
            <mxPoint x="450" y="230" as="targetPoint" />
            <Array as="points">
              <mxPoint x="580" y="395" />
            </Array>
          </mxGeometry>
        </mxCell>
      </root>
    </mxGraphModel>
  </diagram>
</mxfile>
